<?xml version="1.0" standalone="no"?>
<!DOCTYPE svg PUBLIC "-//W3C//DTD SVG 20010904//EN"
 "http://www.w3.org/TR/2001/REC-SVG-20010904/DTD/svg10.dtd">
<svg version="1.0" xmlns="http://www.w3.org/2000/svg"
 width="407.000000pt" height="424.000000pt" viewBox="0 0 407.000000 424.000000"
 preserveAspectRatio="xMidYMid meet">

<g transform="translate(0.000000,424.000000) scale(0.100000,-0.100000)"
fill="#000000" stroke="none">
<path d="M1845 3509 c-115 -67 -284 -164 -375 -216 -91 -53 -212 -123 -270
-156 -58 -33 -113 -67 -122 -75 -17 -14 -18 -55 -18 -588 l0 -572 43 -24 c40
-23 167 -96 542 -313 367 -212 408 -235 418 -235 12 0 386 213 387 220 0 3
-118 73 -262 156 -145 83 -368 212 -495 285 l-233 134 0 355 0 355 173 98 c94
53 226 129 292 167 66 38 128 70 138 70 9 0 236 -126 503 -280 268 -155 489
-278 493 -275 8 9 1 438 -7 446 -12 12 -981 569 -989 569 -4 0 -102 -55 -218
-121z"/>
<path d="M1863 2901 c-101 -58 -181 -110 -180 -114 1 -5 223 -135 492 -291
l490 -282 0 -353 0 -353 -120 -70 c-321 -188 -465 -268 -482 -268 -11 0 -95
44 -189 98 -469 272 -784 453 -798 458 -14 5 -16 -19 -16 -218 l0 -224 88 -51
c48 -28 161 -93 252 -146 91 -52 268 -154 394 -227 126 -72 239 -136 251 -142
19 -8 79 23 426 223 222 127 446 256 497 286 l92 54 -2 582 -3 581 -55 31
c-52 29 -344 198 -751 433 -97 56 -183 102 -190 101 -8 -1 -96 -49 -196 -108z"/>
<path d="M1602 2434 l3 -228 285 -164 c157 -90 359 -206 449 -259 89 -52 169
-92 177 -89 11 4 14 44 14 213 0 114 -4 213 -8 218 -4 6 -86 56 -182 112 -96
55 -278 161 -405 234 -126 73 -254 146 -283 162 l-52 29 2 -228z"/>
</g>
</svg>
