<svg width="128" height="14" viewBox="0 0 128 14" fill="none" xmlns="http://www.w3.org/2000/svg">
<g clip-path="url(#clip0_290_174)">
<path d="M61.755 13.99C60.691 13.99 59.7568 14.01 58.7977 13.97C58.6353 13.97 58.4405 13.7203 58.3331 13.5554C57.3723 11.9735 56.4223 10.3857 55.4831 8.79216C55.422 8.652 55.3179 8.53488 55.186 8.45767C55.054 8.38045 54.9009 8.34715 54.7488 8.36254C53.962 8.39001 53.1752 8.36254 52.3085 8.36254V13.9451H49.5234V0.0599508C49.6057 0.0417814 49.6892 0.0292649 49.7732 0.0224858C52.3734 0.0224858 54.9761 -0.0399604 57.5738 0.0399682C60.8483 0.139879 62.7042 3.50937 61.1056 6.34184C60.5061 7.4034 59.5545 7.99037 58.3131 8.2951C59.4571 10.1834 60.5761 12.0343 61.755 13.99ZM52.3459 2.75005V5.68243C54.1368 5.68243 55.8778 5.7149 57.6162 5.66744C58.3905 5.64496 58.8826 5.00054 58.8801 4.23622C58.8776 3.4719 58.3805 2.78752 57.6462 2.76754C55.8878 2.71259 54.1293 2.75005 52.3459 2.75005Z" fill="#262626"/>
<path d="M98.3447 0.0174321C99.1839 0.0174321 99.9757 -0.0100429 100.763 0.0374147C101.011 0.0886017 101.231 0.232369 101.377 0.439556C103.438 3.23373 105.489 6.03623 107.529 8.84705C107.644 9.00691 107.779 9.15677 108.011 9.459V0.0524007H110.776V13.99C109.904 13.99 109.028 14.0174 108.171 13.9675C107.986 13.9675 107.789 13.6877 107.649 13.5004C105.617 10.7329 103.592 7.96284 101.572 5.19032C101.454 5.02796 101.322 4.8731 101.072 4.55838V13.96H98.3247L98.3447 0.0174321Z" fill="#262626"/>
<path d="M32.8232 0.0349121H43.8509V2.74999H35.6307V5.63241H42.9392V8.34499H35.6232V11.2274H43.8459V13.9575H32.8232V0.0349121Z" fill="#262626"/>
<path d="M126.744 5.61993V8.335H119.413V11.2249H127.616V13.955H116.588V0.0673828H127.631V2.74999H119.388V5.61743L126.744 5.61993Z" fill="#262626"/>
<path d="M-0.00488281 13.9351V0.0524902H11.0452V2.75008H2.80261V5.61003H10.1685V8.35758H2.79262V11.2175H11.0552V13.9351H-0.00488281Z" fill="#262626"/>
<path d="M80.1958 13.9901C80.7428 12.6288 81.2623 11.3424 81.7769 10.0561C83.0457 6.89639 84.3221 3.74171 85.571 0.564542C85.7433 0.124935 85.9631 -0.0399165 86.4352 4.77936e-05C86.9922 0.0475054 87.5592 -0.022432 88.1162 0.0275234C88.2349 0.0412101 88.3491 0.0810059 88.4506 0.144058C88.5521 0.207109 88.6384 0.29185 88.7032 0.392196C90.5099 4.83823 92.3033 9.28759 94.0834 13.7403C94.1071 13.8218 94.123 13.9055 94.1309 13.9901C93.2441 13.9901 92.3824 14.0075 91.5182 13.9751C91.4274 13.9539 91.3426 13.9126 91.27 13.8542C91.1974 13.7959 91.1388 13.7219 91.0986 13.6379C90.8013 12.9535 90.5291 12.2541 90.2743 11.5522C90.2436 11.4127 90.1616 11.2898 90.0445 11.2079C89.9275 11.126 89.7839 11.0911 89.6424 11.1101C87.9988 11.1301 86.3561 11.1301 84.7143 11.1101C84.5721 11.0925 84.4286 11.1286 84.3117 11.2113C84.1948 11.294 84.113 11.4173 84.0823 11.5572C83.8326 12.2166 83.5328 12.8586 83.3055 13.5255C83.1731 13.9126 82.9658 14.025 82.5762 14C81.8143 13.9651 81.05 13.9901 80.1958 13.9901ZM89.0329 8.47748C88.4134 6.8864 87.8315 5.38274 87.247 3.87908L87.0946 3.90156C86.5027 5.40022 85.9082 6.91387 85.2912 8.47748H89.0329Z" fill="#262626"/>
<path d="M14.9067 0.0199957C15.8859 0.0199957 16.7576 -0.00498532 17.6243 0.0399745C17.7892 0.0399745 18.014 0.289754 18.0889 0.479584C19.2703 3.40947 20.4318 6.34684 21.5858 9.28172C21.6857 9.5315 21.7931 9.76879 21.9629 10.1684C22.1253 9.78378 22.2352 9.5315 22.3376 9.27423C23.4941 6.35683 24.6555 3.44444 25.7895 0.51955C25.8284 0.354066 25.9295 0.209884 26.0717 0.116883C26.214 0.0238809 26.3867 -0.0108108 26.5538 0.0199957C27.3207 0.0574623 28.0875 0.0199957 28.9317 0.0199957C28.7594 0.462101 28.6145 0.844258 28.4621 1.22392C26.8136 5.31027 25.1684 9.39579 23.5265 13.4805C23.3717 13.8701 23.1918 14.025 22.7772 14C22.0279 13.96 21.2786 14 20.5292 14C18.6534 9.33917 16.7951 4.7183 14.9067 0.0199957Z" fill="#262626"/>
<path d="M67.0479 0.0499268H69.7804V11.2274H77.1339V13.945H67.0479V0.0499268Z" fill="#262626"/>
</g>
<defs>
<clipPath id="clip0_290_174">
<rect width="127.624" height="14" fill="white"/>
</clipPath>
</defs>
</svg>
